<?xml version="1.0" standalone="no"?>
<!DOCTYPE svg PUBLIC "-//W3C//DTD SVG 20010904//EN"
 "http://www.w3.org/TR/2001/REC-SVG-20010904/DTD/svg10.dtd">
<svg version="1.0" xmlns="http://www.w3.org/2000/svg"
 width="338.000000pt" height="338.381024pt" viewBox="0 0 338.000000 338.381024"
 preserveAspectRatio="xMidYMid meet">
<metadata>
Created by potrace 1.12, written by Peter Selinger 2001-2015
</metadata>
<g transform="translate(-5.000000,361.000000) scale(0.100000,-0.100000)"
fill="#000000" stroke="none">
<path d="M188 3596 c-17 -12 -18 -41 -18 -350 l0 -336 -38 0 c-25 0 -46 -7
-60 -20 l-22 -21 0 -954 0 -954 26 -20 c15 -12 41 -21 60 -21 l34 0 0 -331 c0
-278 2 -333 15 -345 13 -13 213 -15 1559 -17 1535 -2 1545 -2 1560 18 13 17
15 71 16 348 l0 327 33 0 c18 0 43 7 55 16 l22 15 0 967 0 967 -27 13 c-15 6
-40 12 -55 12 l-28 0 0 328 0 328 -25 22 -25 22 -1533 0 c-1258 -1 -1535 -3
-1549 -14z m3012 -391 l0 -295 -121 0 c-121 0 -121 0 -115 23 3 12 6 40 6 62
0 36 4 43 40 65 22 14 40 33 40 42 0 10 5 18 10 18 6 0 10 11 10 25 0 14 5 25
10 25 6 0 10 13 10 29 0 17 -4 33 -10 36 -5 3 -10 15 -10 26 0 23 -53 79 -93
97 -34 15 -96 16 -134 1 -34 -13 -93 -73 -93 -95 0 -8 -5 -24 -11 -36 -23 -44
21 -129 99 -190 18 -15 22 -28 22 -73 l0 -55 -180 0 -180 0 0 63 c0 59 2 65
28 78 62 32 86 80 80 163 -3 51 -9 67 -33 95 -128 145 -356 14 -293 -168 14
-39 57 -86 89 -96 16 -5 19 -16 19 -71 l0 -64 -180 0 -180 0 0 65 c0 36 4 65
9 65 6 0 30 19 55 43 l46 43 0 72 c0 41 -4 72 -10 72 -5 0 -10 7 -10 16 0 9
-10 26 -22 37 -52 46 -130 59 -191 33 -36 -15 -87 -68 -87 -91 0 -8 -4 -15
-10 -15 -5 0 -10 -20 -10 -44 0 -25 5 -48 10 -51 6 -3 10 -14 10 -23 0 -18 42
-72 55 -72 23 0 45 -46 45 -97 l0 -53 -175 0 -175 0 0 61 c0 58 13 89 38 89 5
0 22 16 37 35 53 70 44 167 -21 232 -73 73 -221 48 -264 -44 -22 -47 -26 -122
-9 -155 14 -27 75 -88 88 -88 14 0 21 -27 21 -81 l0 -49 -180 0 -180 0 0 65
c0 36 4 65 8 65 12 0 75 62 90 88 14 26 16 142 2 142 -5 0 -10 6 -10 14 0 23
-67 74 -105 82 -120 22 -215 -54 -215 -171 0 -30 5 -55 10 -55 6 0 10 -7 10
-16 0 -16 66 -84 82 -84 4 0 8 -29 8 -65 l0 -65 -175 0 -175 0 0 56 c0 54 2
57 49 102 54 52 76 106 65 163 -12 63 -30 86 -90 118 -125 67 -275 -39 -249
-177 7 -39 50 -112 66 -112 23 0 37 -29 41 -88 l4 -62 -118 0 -118 0 0 288 c0
159 3 292 7 295 3 4 660 7 1460 7 l1453 0 0 -295z m-2571 18 c9 -20 8 -29 -10
-54 -25 -35 -60 -38 -89 -7 -23 25 -24 29 -9 62 19 41 89 41 108 -1z m459 14
c17 -13 15 -57 -5 -79 -32 -36 -103 -10 -103 38 0 53 62 76 108 41z m470 -3
c30 -30 -6 -94 -53 -94 -33 0 -58 39 -49 75 10 42 68 53 102 19z m446 16 c21
-8 26 -16 26 -45 0 -42 -19 -65 -51 -65 -27 0 -69 37 -69 59 1 23 22 48 45 54
11 2 21 5 22 6 1 0 13 -3 27 -9z m474 -6 c26 -18 29 -60 5 -86 -33 -37 -93
-12 -93 38 0 33 8 49 30 57 25 9 34 8 58 -9z m480 -12 c6 -9 12 -23 12 -32 0
-26 -35 -60 -60 -60 -21 0 -60 33 -60 51 0 22 21 58 37 62 26 6 56 -2 71 -21z
m357 -1319 l0 -878 -1572 -3 -1573 -2 0 882 0 883 1573 -2 1572 -1 0 -879z
m-2805 -1063 c0 -49 -4 -70 -12 -70 -19 0 -61 -40 -78 -74 -19 -37 -19 -115 0
-152 20 -39 56 -74 75 -74 8 0 15 -4 15 -10 0 -13 117 -13 125 0 3 6 13 10 21
10 43 0 101 114 88 174 -10 51 -45 104 -76 117 -32 13 -41 36 -36 100 l3 44
173 3 172 2 0 -65 c0 -60 -2 -65 -27 -79 -34 -17 -63 -51 -63 -71 0 -8 -4 -15
-10 -15 -6 0 -10 -27 -10 -60 0 -33 4 -60 10 -60 6 0 10 -6 10 -13 0 -20 54
-77 73 -77 10 0 17 -4 17 -10 0 -6 27 -10 60 -10 33 0 60 4 60 10 0 6 8 10 18
10 9 0 28 14 42 31 14 17 31 37 37 44 17 17 17 119 1 147 -23 39 -53 70 -75
79 -21 8 -23 15 -23 74 l0 65 178 -2 177 -3 3 -44 c4 -54 -11 -86 -48 -101
-64 -27 -92 -151 -49 -226 25 -46 43 -64 63 -64 9 0 16 -4 16 -10 0 -6 28 -10
65 -10 37 0 65 4 65 10 0 6 7 10 16 10 9 0 29 14 45 31 61 66 64 170 5 233
-18 20 -40 36 -49 36 -14 0 -17 11 -17 70 l0 70 173 -2 172 -3 3 -34 c5 -48
-6 -101 -21 -101 -16 -1 -57 -36 -57 -49 0 -6 -4 -11 -10 -11 -5 0 -10 -9 -10
-19 0 -11 -5 -23 -10 -26 -13 -8 -13 -82 0 -90 5 -3 10 -13 10 -21 0 -19 59
-84 77 -84 7 0 13 -4 13 -10 0 -5 25 -10 55 -10 73 0 155 45 155 84 0 9 5 16
10 16 6 0 10 32 10 75 0 43 -4 75 -10 75 -5 0 -10 5 -10 11 0 13 -15 27 -57
58 -31 21 -33 26 -33 82 l0 59 180 0 180 0 0 -60 c0 -54 -3 -61 -27 -77 -57
-36 -93 -97 -93 -156 0 -41 38 -118 62 -125 10 -2 18 -8 18 -12 0 -4 11 -12
25 -18 32 -15 125 -16 125 -2 0 6 7 10 15 10 17 0 50 30 78 70 20 28 23 119 6
153 -17 33 -51 68 -76 78 -21 8 -23 15 -23 74 l0 65 178 -2 177 -3 3 -44 c4
-48 -13 -91 -34 -91 -19 0 -64 -60 -80 -106 -12 -32 -12 -47 -2 -82 13 -44 55
-97 96 -119 26 -15 132 -17 132 -3 0 6 7 10 16 10 21 0 84 69 84 91 0 10 5 21
10 24 6 3 10 19 10 35 0 16 -4 32 -10 35 -5 3 -10 15 -10 26 0 10 -4 19 -10
19 -5 0 -10 6 -10 13 0 15 -37 50 -62 59 -11 5 -17 22 -19 56 -7 86 -12 82
117 82 l114 0 -2 -290 -3 -291 -1455 -1 -1455 -1 -3 291 -2 292 115 0 115 0 0
-70z m105 -180 c3 -11 11 -20 16 -20 15 0 10 -20 -12 -51 -25 -35 -60 -38 -89
-7 -26 28 -25 42 2 73 27 31 74 34 83 5z m471 6 c33 -33 5 -106 -40 -106 -56
0 -86 63 -48 101 21 22 68 24 88 5z m468 -8 c21 -30 20 -50 -4 -76 -27 -28
-65 -28 -84 0 -21 29 -20 49 2 76 23 29 66 29 86 0z m462 8 c8 -8 14 -29 14
-47 0 -56 -61 -79 -100 -37 -26 28 -25 43 3 73 25 27 62 32 83 11z m470 0 c19
-20 18 -65 -3 -88 -19 -22 -59 -24 -79 -4 -17 18 -18 72 -1 91 16 19 64 19 83
1z m465 -8 c23 -26 24 -47 3 -76 -20 -28 -61 -29 -85 0 -24 26 -24 48 -1 76
22 28 59 28 83 0z"/>
<path d="M420 2420 c-19 -19 -20 -33 -20 -503 0 -458 1 -485 19 -505 l18 -22
659 0 c581 0 662 2 682 16 l22 15 0 491 c0 490 0 491 -22 509 -20 18 -51 19
-680 19 -645 0 -658 0 -678 -20z m1268 -507 l-3 -408 -565 -3 c-311 -1 -575 0
-587 3 l-23 5 0 405 0 405 590 0 590 0 -2 -407z"/>
<path d="M2467 2430 c-56 -9 -188 -64 -195 -82 -2 -4 -8 -8 -14 -8 -13 0 -118
-106 -118 -120 0 -5 -4 -10 -9 -10 -9 0 -47 -74 -63 -125 -23 -70 -34 -176
-26 -233 16 -102 49 -187 92 -237 14 -16 26 -34 26 -38 0 -11 16 -26 65 -62
22 -17 42 -32 45 -35 11 -11 93 -50 106 -50 8 0 14 -4 14 -10 0 -5 18 -10 39
-10 22 0 43 -4 46 -10 3 -5 44 -10 90 -10 46 0 87 5 90 10 3 6 22 10 41 10 19
0 34 5 34 10 0 6 7 10 15 10 15 0 70 29 120 63 66 45 165 166 165 202 0 8 5
15 10 15 6 0 10 14 10 30 0 17 4 30 9 30 17 0 27 134 16 225 -6 54 -8 57 -53
155 -29 64 -120 170 -171 198 -70 40 -91 50 -141 65 -71 21 -170 28 -243 17z
m211 -119 c9 -5 42 -21 72 -36 64 -31 118 -77 139 -117 8 -16 18 -28 23 -28 4
0 8 -9 8 -20 0 -11 4 -20 8 -20 4 0 14 -21 22 -47 18 -58 19 -245 1 -251 -6
-2 -11 -11 -11 -21 0 -22 -23 -71 -32 -71 -5 0 -8 -5 -8 -11 0 -15 -92 -108
-107 -109 -6 0 -13 -4 -15 -8 -6 -14 -92 -49 -153 -62 -48 -10 -74 -10 -130 0
-38 7 -74 17 -80 22 -5 4 -17 8 -27 8 -10 0 -18 5 -18 10 0 6 -7 10 -15 10
-37 0 -175 164 -175 209 0 11 -5 21 -11 23 -13 4 -14 228 -1 254 5 11 16 33
23 49 17 37 23 45 79 105 42 45 96 79 165 106 36 14 218 18 243 5z"/>
</g>
</svg>
