<?xml version="1.0" standalone="no"?>
<!DOCTYPE svg PUBLIC "-//W3C//DTD SVG 20010904//EN"
 "http://www.w3.org/TR/2001/REC-SVG-20010904/DTD/svg10.dtd">
<svg version="1.0" xmlns="http://www.w3.org/2000/svg"
 width="364.000000pt" height="364.000000pt" viewBox="0 0 364.000000 364.000000"
 preserveAspectRatio="xMidYMid meet">
<metadata>
Created by potrace 1.12, written by Peter Selinger 2001-2015
</metadata>
<g transform="translate(-6.000000,370.000000) scale(0.100000,-0.100000)"
fill="#000000" stroke="none">
<path d="M1661 3681 c-11 -11 -25 -37 -30 -58 -6 -21 -62 -204 -125 -407
l-113 -370 -419 -376 -419 -376 -3 -88 c-2 -72 0 -92 14 -107 41 -45 110 3 98
68 l-6 33 66 0 66 0 0 -44 c0 -35 5 -48 22 -60 49 -35 98 -3 98 64 l0 40 177
0 c97 0 173 -4 168 -8 -162 -144 -425 -380 -545 -487 l-155 -141 -3 -88 c-2
-72 0 -92 14 -107 38 -43 96 -8 98 58 l1 38 63 3 62 3 0 -41 c0 -69 57 -103
100 -60 13 13 20 33 20 60 l0 40 225 0 225 0 -272 -545 -273 -545 -377 0 -378
0 0 -60 0 -60 1820 0 1820 0 0 60 0 60 -375 0 -375 0 -270 540 c-148 297 -270
542 -270 545 0 3 100 5 223 5 l222 0 0 -39 c0 -42 26 -81 54 -81 37 0 61 29
61 76 l0 44 65 0 65 0 0 -43 c0 -74 58 -103 99 -51 17 22 21 41 21 100 0 62
-3 77 -22 97 -13 14 -160 147 -328 297 -168 150 -318 286 -335 301 l-30 29
178 0 177 0 -3 -35 c-8 -67 57 -111 96 -67 10 11 17 36 17 60 l0 42 65 0 65 0
0 -43 c0 -81 73 -108 109 -40 12 23 14 137 3 164 -4 9 -173 166 -377 349 -203
183 -392 353 -418 378 l-49 45 -125 406 c-88 289 -130 411 -145 424 -18 15
-44 17 -219 17 -184 0 -200 -1 -218 -19z m393 -213 c90 -288 186 -604 186
-610 0 -5 -162 -8 -361 -8 -338 0 -360 1 -355 18 3 9 53 172 111 360 58 189
105 346 105 348 0 2 63 4 140 4 l139 0 35 -112z m86 -742 c0 -7 -249 -216
-258 -216 -6 0 -216 172 -256 211 -6 5 95 9 252 9 144 0 262 -2 262 -4z m855
-598 c5 -4 -134 -8 -308 -8 l-317 0 0 286 0 285 308 -277 c169 -152 311 -281
317 -286z m-1595 272 l0 -280 -317 0 -318 0 35 34 c69 68 585 526 592 526 5 0
8 -126 8 -280z m290 110 c52 -44 94 -84 93 -87 -4 -13 -258 -221 -265 -217 -9
6 -11 428 -2 437 8 7 36 -15 174 -133z m560 -85 c0 -124 -3 -225 -6 -225 -7 0
-251 207 -259 220 -5 8 241 229 258 230 4 0 7 -101 7 -225z m-233 -192 l126
-108 -131 -3 c-73 -1 -191 -1 -262 0 l-131 3 128 108 c70 59 131 107 135 107
5 0 65 -48 135 -107z m123 -237 c0 -11 -254 -217 -263 -213 -9 4 -224 182
-256 213 -2 2 113 4 257 4 144 0 262 -2 262 -4z m625 -391 c121 -109 222 -202
223 -206 2 -5 -136 -9 -307 -9 l-311 0 0 286 0 286 88 -79 c48 -44 186 -169
307 -278z m-1365 65 l0 -280 -315 0 c-173 0 -315 2 -315 5 0 7 613 555 622
555 4 0 8 -126 8 -280z m273 126 c64 -55 116 -101 114 -102 -42 -42 -263 -221
-269 -218 -9 6 -11 428 -2 437 8 8 17 2 157 -117z m577 -101 c0 -124 -3 -225
-6 -225 -9 0 -264 221 -263 228 0 9 252 221 262 222 4 0 7 -101 7 -225z m-238
-303 c-73 -1 -191 -1 -263 0 l-131 3 133 111 132 112 130 -112 131 -111 -132
-3z m12 -252 c-73 -72 -136 -130 -141 -130 -5 0 -69 58 -143 129 l-135 130
275 0 275 1 -131 -130z m-234 -219 c0 -4 -171 -172 -380 -374 -371 -359 -381
-367 -420 -367 -22 0 -40 2 -40 4 0 3 117 239 260 526 l261 521 159 -151 c88
-84 160 -155 160 -159z m760 -211 c143 -286 260 -522 260 -525 0 -3 -17 -5
-37 -5 -44 0 -11 -29 -408 355 -154 148 -307 296 -340 327 l-60 58 160 154
c88 85 161 155 162 155 2 1 120 -233 263 -519z m-327 -202 l334 -323 -338 -3
c-187 -1 -491 -1 -676 0 l-338 3 334 323 c184 177 338 322 342 322 4 0 158
-145 342 -322z"/>
</g>
</svg>
