<?xml version="1.0" standalone="no"?>
<!DOCTYPE svg PUBLIC "-//W3C//DTD SVG 20010904//EN"
 "http://www.w3.org/TR/2001/REC-SVG-20010904/DTD/svg10.dtd">
<svg version="1.0" xmlns="http://www.w3.org/2000/svg"
 width="443.994123pt" height="443.167407pt" viewBox="0 0 443.994123 443.167407"
 preserveAspectRatio="xMidYMid meet">
<metadata>
Created by potrace 1.12, written by Peter Selinger 2001-2015
</metadata>
<g transform="translate(-36.000000,453.000000) scale(0.100000,-0.100000)"
fill="#000000" stroke="none">
<path d="M360 3270 l0 -1260 1310 0 1310 0 2 203 3 202 253 3 252 2 0 402 0
401 128 -6 c153 -7 215 -23 347 -87 303 -147 526 -454 610 -840 22 -102 31
-342 16 -455 -64 -493 -373 -888 -786 -1007 l-80 -23 -877 -3 -878 -3 0 -99 0
-100 839 0 c549 0 867 4 918 11 606 84 1073 692 1073 1398 0 774 -549 1410
-1217 1411 l-93 0 0 355 0 355 -255 0 -255 0 0 200 0 200 -1310 0 -1310 0 0
-1260z m2420 865 l5 -200 253 -3 252 -2 0 -655 0 -655 -252 -2 -253 -3 -3
-203 -2 -202 -1113 2 -1112 3 -3 1040 c-1 572 0 1050 3 1063 l5 22 1108 -2
1107 -3 5 -200z"/>
<path d="M1567 4014 c-196 -43 -380 -169 -482 -328 -141 -221 -157 -504 -41
-747 86 -182 258 -326 466 -391 63 -19 96 -23 210 -23 114 0 147 4 210 23 150
47 280 133 373 247 60 73 131 217 153 310 21 91 21 250 0 339 -22 91 -81 216
-141 295 -89 116 -254 226 -400 266 -87 23 -264 28 -348 9z m281 -199 c136
-32 253 -113 331 -230 92 -138 120 -286 82 -434 -50 -201 -179 -340 -375 -406
-88 -29 -217 -34 -306 -10 -156 41 -289 151 -358 295 -65 135 -77 240 -42 374
27 105 74 190 145 261 136 136 337 194 523 150z"/>
<path d="M1905 3600 l-90 -90 -50 9 c-169 32 -326 -118 -299 -284 27 -171 209
-265 362 -189 108 54 165 178 133 290 -9 30 -5 35 85 125 l94 94 -67 67 c-37
38 -70 68 -73 68 -3 0 -46 -41 -95 -90z"/>
<path d="M2080 1749 c-64 -80 -126 -179 -167 -265 -57 -120 -46 -213 35 -298
103 -108 261 -104 361 10 69 79 78 177 27 289 -28 62 -134 226 -184 284 l-29
35 -43 -55z"/>
<path d="M1118 1709 c-231 -274 -439 -603 -524 -829 -38 -103 -40 -240 -5
-348 105 -321 447 -507 747 -406 191 64 354 234 408 424 37 135 28 235 -38
396 -81 199 -282 505 -507 773 l-36 43 -45 -53z m134 -383 c149 -206 262 -407
300 -530 16 -53 19 -82 14 -129 -18 -177 -172 -338 -349 -367 -215 -35 -437
149 -454 373 -6 86 13 152 88 297 80 158 293 472 314 467 6 -2 45 -52 87 -111z"/>
</g>
</svg>
