<?xml version="1.0" standalone="no"?>
<!DOCTYPE svg PUBLIC "-//W3C//DTD SVG 20010904//EN"
 "http://www.w3.org/TR/2001/REC-SVG-20010904/DTD/svg10.dtd">
<svg version="1.0" xmlns="http://www.w3.org/2000/svg"
 width="395.000000pt" height="341.983238pt" viewBox="0 0 395.000000 341.983238"
 preserveAspectRatio="xMidYMid meet">
<metadata>
Created by potrace 1.12, written by Peter Selinger 2001-2015
</metadata>
<g transform="translate(-27.000000,362.983238) scale(0.100000,-0.100000)"
fill="#000000" stroke="none">
<path d="M1195 3615 c-22 -8 -51 -15 -64 -15 -13 0 -51 -10 -84 -22 -75 -27
-101 -62 -92 -125 l6 -43 -74 0 c-106 0 -118 -11 -120 -115 l-2 -80 -52 -3
-53 -3 0 -1435 0 -1434 -45 0 c-32 0 -51 -6 -65 -20 -20 -20 -20 -20 -40 0
-17 17 -33 20 -110 20 -102 0 -130 -15 -130 -69 0 -47 30 -61 132 -61 75 0 91
3 108 20 l20 20 20 -20 c20 -20 33 -20 1828 -20 1740 0 1810 1 1825 18 10 10
17 33 17 50 0 40 -31 62 -87 62 l-43 0 0 1435 0 1435 -50 0 -50 0 0 34 c0 27
7 39 30 56 75 54 93 180 36 255 -32 41 -95 74 -141 75 -16 0 -50 -6 -75 -14
-25 -8 -71 -23 -104 -33 -90 -28 -112 -57 -107 -139 l2 -32 -81 -4 c-103 -4
-110 -12 -110 -120 l0 -78 -55 0 -55 0 0 -202 0 -203 -218 -151 -217 -151 -5
223 c-5 200 -7 224 -24 243 -11 12 -29 21 -41 21 -13 0 -87 -46 -166 -102 -79
-56 -236 -167 -349 -245 l-205 -143 -5 231 c-5 214 -6 232 -24 245 -11 8 -29
14 -40 14 -12 0 -91 -50 -176 -111 -196 -140 -427 -299 -434 -299 -3 0 -6 127
-6 283 l0 282 63 -3 c39 -2 77 2 97 10 32 13 38 12 75 -9 57 -32 112 -38 178
-19 30 9 78 16 106 16 183 0 258 223 110 329 -23 17 -52 31 -65 31 -12 0 -36
11 -52 25 -71 60 -165 79 -244 51 -34 -12 -42 -11 -84 10 -52 26 -137 32 -190
14 -23 -8 -37 -6 -69 10 -46 23 -94 25 -150 5z m122 -150 c37 -41 54 -43 108
-10 56 35 109 34 143 -3 54 -58 75 -60 142 -14 48 33 91 25 145 -28 32 -32 48
-40 76 -40 49 0 77 -30 61 -65 -15 -34 -37 -41 -78 -26 -29 11 -39 9 -89 -14
-48 -23 -60 -25 -89 -15 -18 6 -45 24 -60 40 -32 37 -63 38 -112 5 -70 -48
-135 -28 -170 52 -26 59 -53 72 -105 54 -29 -10 -34 -8 -61 21 l-30 32 27 23
c36 32 56 29 92 -12z m2625 18 c37 -34 5 -98 -43 -86 -23 6 -68 65 -52 70 5 2
19 10 29 18 25 19 44 19 66 -2z m-2762 -233 l0 -30 -85 0 c-67 0 -87 3 -91 15
-14 37 2 45 91 45 l85 0 0 -30z m2570 0 l0 -31 -87 3 c-88 3 -88 3 -91 31 l-3
27 90 0 91 0 0 -30z m-2460 -470 l0 -299 -61 -42 c-109 -74 -99 -30 -99 -434
l0 -355 -170 0 -170 0 0 715 0 715 250 0 250 0 0 -300z m2670 -415 l0 -716
-142 3 -143 3 -3 650 c-2 647 -2 650 -23 668 -32 26 -58 21 -119 -23 -39 -29
-56 -36 -62 -27 -9 14 -10 102 -2 135 l6 22 244 0 244 0 0 -715z m-2015 23
l-25 -19 0 -360 0 -359 -330 0 -330 0 2 326 3 327 276 191 c151 105 309 215
350 244 l74 53 3 -191 2 -192 -25 -20z m815 216 l0 -186 -30 -35 -30 -34 0
-349 0 -350 -325 0 -325 0 0 328 1 327 241 165 c132 91 288 200 347 242 58 42
109 77 114 78 4 0 7 -84 7 -186z m780 -384 l0 -570 -350 0 -350 0 0 328 0 328
228 156 c125 86 281 195 347 242 66 47 121 86 122 86 2 0 3 -256 3 -570z m420
-1345 l0 -535 -115 0 -114 0 -3 376 c-3 359 -4 376 -22 390 -17 12 -211 14
-1307 14 l-1288 0 -15 -22 c-14 -19 -16 -74 -16 -390 l0 -368 -145 0 -145 0 0
535 0 535 1585 0 1585 0 0 -535z m-2040 -210 l0 -325 -355 0 -355 0 0 325 0
325 355 0 355 0 0 -325z m840 0 l0 -325 -355 0 -355 0 0 325 0 325 355 0 355
0 0 -325z m838 3 l-3 -323 -352 -3 -353 -2 0 325 0 325 355 0 355 0 -2 -322z"/>
</g>
</svg>
