<?xml version="1.0" encoding="UTF-8" standalone="no"?>
<!DOCTYPE svg PUBLIC "-//W3C//DTD SVG 1.1//EN" "http://www.w3.org/Graphics/SVG/1.1/DTD/svg11.dtd">
<svg xmlns="http://www.w3.org/2000/svg" version="1.1" viewBox="0.00 0.00 932.00 267.00">
<path fill="#353639" d="
  M 334.84 0.00
  L 341.08 0.00
  L 341.51 0.25
  Q 341.98 0.52 341.96 1.04
  Q 341.52 13.95 341.76 27.00
  C 341.79 28.67 342.18 30.25 342.19 31.94
  Q 342.26 119.63 342.02 202.75
  C 341.96 223.50 341.44 245.22 341.71 264.75
  Q 341.74 266.64 340.68 267.00
  L 334.38 267.00
  Q 333.91 241.42 333.76 215.75
  Q 333.75 214.63 333.75 213.50
  Q 333.48 123.89 333.56 31.50
  C 333.56 29.94 334.00 28.38 334.02 26.77
  Q 334.24 13.63 333.84 0.91
  A 0.71 0.71 0.0 0 1 334.27 0.24
  L 334.84 0.00
  Z"
/>
<path fill="#006ab4" d="
  M 148.02 166.75
  A 0.40 0.39 -43.0 0 0 148.68 166.77
  Q 150.50 164.22 152.18 161.55
  Q 160.41 148.43 168.84 134.06
  C 177.01 120.14 185.94 106.48 193.91 92.53
  Q 195.57 89.61 197.44 86.88
  Q 197.75 86.43 198.10 86.85
  Q 199.67 88.66 200.83 90.68
  Q 210.74 108.02 220.40 124.34
  Q 221.68 126.49 220.40 128.69
  Q 185.71 188.13 155.00 242.67
  Q 152.31 247.44 149.47 251.63
  A 0.98 0.98 0.0 0 1 147.98 251.79
  Q 146.11 249.99 144.41 247.02
  Q 112.35 191.10 78.52 133.07
  Q 77.22 130.83 76.13 128.21
  Q 75.94 127.74 76.05 127.25
  Q 76.45 125.52 77.28 124.08
  Q 108.24 70.42 140.70 15.36
  C 143.34 10.89 145.69 6.25 148.34 1.78
  Q 148.62 1.31 148.90 1.79
  L 174.30 45.24
  Q 174.59 45.72 174.43 46.25
  Q 173.75 48.58 172.48 50.72
  Q 152.73 84.12 133.49 116.18
  Q 130.19 121.69 126.82 127.78
  Q 125.90 129.45 127.18 131.66
  Q 136.73 148.13 148.02 166.75
  Z"
/>
<path fill="#006ab4" d="
  M 414.95 138.57
  L 396.64 138.54
  A 0.61 0.61 0.0 0 0 396.05 138.96
  L 392.42 150.33
  A 0.61 0.61 0.0 0 1 391.83 150.75
  L 385.40 150.74
  A 0.61 0.61 0.0 0 1 384.82 149.94
  L 402.30 95.41
  A 0.61 0.61 0.0 0 1 402.88 94.99
  L 409.49 94.98
  A 0.61 0.61 0.0 0 1 410.07 95.40
  L 427.80 150.04
  A 0.61 0.61 0.0 0 1 427.20 150.84
  L 419.67 150.69
  A 0.61 0.61 0.0 0 1 419.10 150.26
  L 415.53 139.00
  A 0.61 0.61 0.0 0 0 414.95 138.57
  Z
  M 399.50 127.58
  A 0.49 0.49 0.0 0 0 399.96 128.22
  L 411.61 128.26
  A 0.49 0.49 0.0 0 0 412.08 127.62
  L 406.32 108.71
  A 0.49 0.49 0.0 0 0 405.39 108.71
  L 399.50 127.58
  Z"
/>
<rect fill="#006ab4" x="437.48" y="94.97" width="7.80" height="55.70" rx="0.67"/>
<path fill="#006ab4" d="
  M 487.02 138.81
  L 486.99 128.02
  Q 486.99 127.86 487.14 127.91
  Q 494.03 130.30 494.84 130.96
  Q 494.89 131.00 494.89 131.06
  Q 495.38 138.94 493.97 145.66
  C 492.85 151.03 488.02 150.66 483.70 150.71
  Q 476.87 150.80 471.22 150.69
  C 466.54 150.60 463.18 151.01 461.36 146.73
  Q 460.18 143.98 460.12 140.00
  Q 459.84 123.40 460.06 105.01
  C 460.11 100.73 461.61 95.18 467.09 95.08
  Q 475.64 94.94 487.01 94.97
  C 490.70 94.99 493.36 96.76 494.13 100.58
  Q 495.39 106.87 494.86 113.55
  Q 494.84 113.74 494.66 113.80
  L 487.31 115.97
  A 0.23 0.22 81.6 0 1 487.02 115.75
  L 487.00 106.59
  A 1.16 1.16 0.0 0 0 485.84 105.44
  L 469.21 105.39
  A 1.16 1.15 0.0 0 0 468.05 106.54
  L 468.04 138.97
  A 0.68 0.68 0.0 0 0 468.72 139.65
  L 486.19 139.65
  Q 487.03 139.65 487.02 138.81
  Z"
/>
<path fill="#353639" d="
  M 539.78 116.34
  Q 550.27 116.32 558.56 116.41
  C 564.89 116.48 565.86 122.51 565.99 127.46
  Q 566.20 135.49 565.72 142.49
  C 565.47 146.18 563.97 150.26 559.55 150.34
  Q 548.87 150.53 537.67 150.52
  C 530.95 150.51 530.76 142.21 530.72 137.13
  Q 530.71 135.94 531.81 135.51
  L 536.62 133.61
  Q 538.00 133.06 537.64 134.50
  Q 537.29 135.93 537.50 138.77
  A 1.09 1.09 0.0 0 0 538.59 139.78
  L 558.43 139.82
  A 0.85 0.84 -0.3 0 0 559.28 138.97
  L 559.24 128.52
  A 0.90 0.90 0.0 0 0 558.32 127.63
  Q 549.10 127.82 539.41 127.68
  C 534.47 127.61 532.34 123.72 532.10 119.33
  Q 531.73 112.48 531.89 104.53
  C 531.93 102.86 532.64 98.98 533.68 97.71
  Q 535.80 95.15 537.99 95.11
  Q 546.04 94.99 554.72 94.98
  Q 559.52 94.97 560.46 95.28
  C 565.25 96.82 565.77 102.73 565.84 107.27
  Q 565.86 108.66 564.59 109.21
  L 559.96 111.23
  Q 558.82 111.73 558.85 110.48
  L 558.94 106.53
  A 1.36 1.35 0.8 0 0 557.58 105.14
  L 539.83 105.16
  A 0.84 0.84 0.0 0 0 538.99 106.00
  L 539.01 115.57
  Q 539.01 116.34 539.78 116.34
  Z"
/>
<path fill="#353639" d="
  M 619.29 103.34
  L 619.08 142.14
  A 8.23 8.23 0.0 0 1 610.80 150.32
  L 588.36 150.20
  A 8.23 8.23 0.0 0 1 580.18 142.01
  L 580.00 103.25
  A 8.23 8.23 0.0 0 1 588.26 94.98
  L 611.09 95.06
  A 8.23 8.23 0.0 0 1 619.29 103.34
  Z
  M 611.3083 106.4703
  A 1.00 1.00 0.0 0 0 610.3100 105.4686
  L 589.0701 105.4315
  A 1.00 1.00 0.0 0 0 588.0683 106.4297
  L 588.0117 138.8697
  A 1.00 1.00 0.0 0 0 589.0100 139.8714
  L 610.2499 139.9085
  A 1.00 1.00 0.0 0 0 611.2517 138.9103
  L 611.3083 106.4703
  Z"
/>
<path fill="#353639" d="
  M 700.95 139.77
  Q 702.50 139.53 702.50 138.65
  Q 702.43 115.32 702.66 95.41
  Q 702.67 95.10 702.98 95.10
  L 710.07 94.99
  A 0.41 0.41 0.0 0 1 710.48 95.39
  Q 710.61 115.30 710.54 134.97
  Q 710.52 140.96 709.37 145.21
  Q 708.15 149.71 703.06 150.07
  Q 693.88 150.73 681.90 150.44
  C 673.95 150.24 674.54 142.08 674.52 135.75
  Q 674.46 115.45 674.51 95.34
  Q 674.51 95.08 674.76 95.08
  L 682.07 95.00
  Q 682.40 95.00 682.40 95.32
  L 682.51 138.75
  A 0.99 0.99 0.0 0 0 683.50 139.74
  L 700.84 139.78
  A 0.58 0.21 -25.1 0 0 700.95 139.77
  Z"
/>
<path fill="#353639" d="
  M 731.96 105.28
  L 719.57 105.39
  A 0.97 0.97 0.0 0 1 718.59 104.42
  L 718.60 96.14
  A 0.97 0.97 0.0 0 1 719.57 95.17
  L 754.60 95.16
  A 0.97 0.97 0.0 0 1 755.57 96.13
  L 755.56 104.47
  A 0.97 0.97 0.0 0 1 754.59 105.44
  L 742.10 105.39
  A 0.97 0.97 0.0 0 0 741.13 106.36
  L 740.91 149.34
  A 0.97 0.97 0.0 0 1 739.97 150.30
  L 734.11 150.45
  A 0.97 0.97 0.0 0 1 733.12 149.49
  L 732.93 106.24
  A 0.97 0.97 0.0 0 0 731.96 105.28
  Z"
/>
<rect fill="#353639" x="-3.98" y="-27.82" transform="translate(767.73,122.83) rotate(-0.1)" width="7.96" height="55.64" rx="1.08"/>
<path fill="#353639" d="
  M 825.58 142.66
  A 7.78 7.78 0.0 0 1 817.80 150.44
  L 794.26 150.44
  A 7.78 7.78 0.0 0 1 786.48 142.66
  L 786.48 102.86
  A 7.78 7.78 0.0 0 1 794.26 95.08
  L 817.80 95.08
  A 7.78 7.78 0.0 0 1 825.58 102.86
  L 825.58 142.66
  Z
  M 817.5281 106.5002
  A 1.01 1.01 0.0 0 0 816.5199 105.4884
  L 795.4599 105.4516
  A 1.01 1.01 0.0 0 0 794.4482 106.4599
  L 794.3919 138.7198
  A 1.01 1.01 0.0 0 0 795.4001 139.7316
  L 816.4601 139.7684
  A 1.01 1.01 0.0 0 0 817.4718 138.7601
  L 817.5281 106.5002
  Z"
/>
<path fill="#353639" d="
  M 848.49 115.60
  Q 847.47 114.11 847.52 115.92
  Q 847.90 129.81 847.16 148.97
  Q 847.11 150.37 845.70 150.49
  L 841.68 150.81
  Q 840.18 150.94 840.18 149.43
  L 840.19 96.08
  Q 840.19 95.10 841.17 95.08
  L 844.71 95.02
  Q 845.71 95.00 846.27 95.83
  Q 857.23 112.00 867.79 127.40
  Q 868.04 127.77 868.49 128.71
  Q 868.90 129.54 869.43 129.87
  Q 870.45 130.51 870.46 129.30
  L 870.54 95.34
  A 0.29 0.29 0.0 0 1 870.83 95.05
  L 877.58 95.00
  A 0.25 0.25 0.0 0 1 877.84 95.25
  L 877.80 149.80
  Q 877.80 150.60 877.01 150.69
  C 874.97 150.93 872.59 151.21 871.26 149.21
  Q 860.16 132.58 848.49 115.60
  Z"
/>
<path fill="#353639" d="
  M 900.27 115.75
  A 0.65 0.64 90.0 0 0 900.91 116.40
  Q 909.35 116.41 919.65 116.37
  C 924.70 116.34 926.84 119.47 927.28 124.05
  Q 928.12 132.69 927.56 140.44
  C 927.33 143.61 926.88 148.80 923.19 149.72
  Q 920.33 150.43 916.88 150.47
  Q 907.18 150.59 898.99 150.46
  C 891.99 150.36 891.66 141.12 892.24 136.07
  Q 892.29 135.65 892.68 135.52
  L 898.78 133.40
  A 0.23 0.22 -5.8 0 1 899.08 133.64
  Q 898.33 139.89 900.36 139.85
  Q 910.16 139.66 919.23 139.85
  A 1.57 1.57 0.0 0 0 920.83 138.28
  L 920.78 129.20
  A 1.37 1.37 0.0 0 0 919.41 127.84
  Q 910.34 127.89 900.65 127.67
  Q 895.23 127.55 894.19 122.26
  Q 892.00 111.19 894.15 100.70
  Q 895.29 95.13 901.23 95.06
  Q 910.86 94.93 919.95 95.20
  C 926.81 95.41 927.52 102.50 926.99 107.71
  Q 926.87 108.86 925.82 109.32
  L 921.45 111.23
  Q 920.27 111.74 920.26 110.45
  L 920.22 106.15
  A 1.12 1.11 89.5 0 0 919.11 105.05
  L 901.47 105.07
  A 1.21 1.21 0.0 0 0 900.26 106.28
  L 900.27 115.75
  Z"
/>
<path fill="#353639" d="
  M 641.98 139.01
  Q 642.15 139.78 642.93 139.78
  L 664.32 139.79
  Q 665.36 139.79 665.34 140.83
  L 665.12 149.47
  Q 665.10 150.28 664.28 150.30
  Q 648.93 150.71 635.17 150.17
  A 0.86 0.86 0.0 0 1 634.35 149.38
  Q 634.11 146.50 634.09 143.61
  Q 633.88 120.60 633.99 96.17
  Q 634.00 95.19 634.98 95.19
  L 640.79 95.24
  Q 641.88 95.25 641.88 96.34
  Q 641.85 115.91 641.84 137.69
  Q 641.84 138.37 641.98 139.01
  Z"
/>
<path fill="#b2a6a5" d="
  M 445.43 170.79
  L 435.33 170.47
  A 0.81 0.81 0.0 0 1 434.55 169.66
  L 434.53 167.78
  A 0.81 0.81 0.0 0 1 435.34 166.97
  L 462.34 166.90
  A 0.81 0.81 0.0 0 1 463.15 167.77
  L 462.99 169.90
  A 0.81 0.81 0.0 0 1 462.19 170.65
  L 452.31 170.73
  A 0.81 0.81 0.0 0 0 451.50 171.54
  L 451.29 193.28
  A 0.81 0.81 0.0 0 1 450.48 194.08
  L 447.15 194.08
  A 0.81 0.81 0.0 0 1 446.34 193.27
  L 446.21 171.60
  A 0.81 0.81 0.0 0 0 445.43 170.79
  Z"
/>
<path fill="#b2a6a5" d="
  M 472.70 177.24
  Q 472.79 178.23 473.78 178.24
  L 490.97 178.50
  Q 491.91 178.52 491.91 179.47
  L 491.89 181.36
  Q 491.89 181.96 491.29 181.96
  L 473.17 182.08
  Q 472.42 182.09 472.43 182.84
  L 472.57 189.50
  Q 472.59 190.66 473.75 190.67
  L 492.77 190.80
  Q 493.98 190.81 494.03 192.02
  L 494.05 192.59
  A 1.08 1.07 85.4 0 1 493.11 193.70
  Q 490.95 193.97 488.79 193.99
  Q 478.09 194.09 468.07 194.13
  A 0.65 0.64 89.5 0 1 467.43 193.49
  L 467.20 167.44
  A 0.61 0.61 0.0 0 1 467.81 166.82
  L 492.50 166.94
  Q 493.56 166.95 493.48 168.01
  L 493.33 169.80
  Q 493.25 170.72 492.33 170.73
  L 474.00 170.92
  Q 472.79 170.94 472.68 172.13
  Q 472.45 174.48 472.70 177.24
  Z"
/>
<path fill="#b2a6a5" d="
  M 512.14 190.96
  C 517.48 192.06 522.65 190.72 525.01 185.36
  Q 525.53 184.18 526.78 184.53
  L 528.98 185.14
  Q 530.22 185.48 529.58 186.60
  Q 525.34 194.03 516.80 194.17
  C 510.39 194.27 504.61 193.57 500.89 187.58
  Q 496.98 181.27 499.92 174.89
  C 503.23 167.74 510.91 166.26 518.16 166.77
  Q 525.96 167.31 529.43 174.34
  Q 529.52 174.53 529.31 174.59
  L 525.57 175.59
  A 0.47 0.45 -23.7 0 1 525.06 175.40
  Q 520.20 167.80 511.02 170.55
  Q 504.33 172.57 504.02 179.92
  Q 503.64 189.20 512.14 190.96
  Z"
/>
<path fill="#b2a6a5" d="
  M 539.80 194.05
  L 536.59 193.95
  A 0.81 0.81 0.0 0 1 535.80 193.15
  L 535.64 167.71
  A 0.81 0.81 0.0 0 1 536.49 166.90
  L 539.98 167.09
  A 0.81 0.81 0.0 0 1 540.75 167.89
  L 540.82 177.36
  A 0.81 0.81 0.0 0 0 541.64 178.16
  L 558.04 178.00
  A 0.81 0.81 0.0 0 0 558.84 177.18
  L 558.69 167.79
  A 0.81 0.81 0.0 0 1 559.51 166.97
  L 562.98 166.99
  A 0.81 0.81 0.0 0 1 563.78 167.81
  L 563.58 193.21
  A 0.81 0.81 0.0 0 1 562.77 194.01
  L 559.55 194.03
  A 0.81 0.81 0.0 0 1 558.73 193.22
  L 558.76 182.29
  A 0.81 0.81 0.0 0 0 557.95 181.48
  L 541.59 181.45
  A 0.81 0.81 0.0 0 0 540.78 182.25
  L 540.63 193.26
  A 0.81 0.81 0.0 0 1 539.80 194.05
  Z"
/>
<path fill="#b2a6a5" d="
  M 576.16 176.01
  L 576.02 193.56
  Q 576.02 194.14 575.44 194.15
  L 571.82 194.21
  Q 571.16 194.23 571.16 193.57
  L 571.21 167.57
  Q 571.22 166.71 572.06 166.86
  Q 573.41 167.10 574.60 166.82
  Q 575.27 166.66 575.74 167.17
  Q 584.11 176.32 592.37 185.92
  Q 592.85 186.48 593.50 186.80
  A 0.84 0.84 0.0 0 0 594.70 186.04
  L 594.61 168.61
  A 1.19 1.18 2.4 0 1 595.90 167.43
  L 597.93 167.60
  Q 599.14 167.71 599.12 168.92
  L 598.69 191.96
  Q 598.67 192.98 597.67 193.16
  C 596.32 193.42 594.94 193.49 593.79 192.56
  Q 591.96 191.09 590.51 189.43
  Q 584.16 182.17 577.89 175.35
  Q 576.18 173.49 576.16 176.01
  Z"
/>
<path fill="#b2a6a5" d="
  M 639.1683 180.2435
  A 16.94 13.93 -0.8 0 1 622.4245 194.4086
  A 16.94 13.93 -0.8 0 1 605.2917 180.7165
  A 16.94 13.93 -0.8 0 1 622.0355 166.5514
  A 16.94 13.93 -0.8 0 1 639.1683 180.2435
  Z
  M 634.1374 179.9093
  A 9.68 9.68 0.0 0 0 624.6795 170.0122
  L 620.3206 169.9133
  A 9.68 9.68 0.0 0 0 610.4235 179.3712
  L 610.3826 181.1707
  A 9.68 9.68 0.0 0 0 619.8405 191.0678
  L 624.1994 191.1667
  A 9.68 9.68 0.0 0 0 634.0965 181.7088
  L 634.1374 179.9093
  Z"
/>
<path fill="#b2a6a5" d="
  M 704.8463 180.1654
  A 16.93 13.88 -1.2 0 1 688.2107 194.3970
  A 16.93 13.88 -1.2 0 1 670.9937 180.8746
  A 16.93 13.88 -1.2 0 1 687.6293 166.6430
  A 16.93 13.88 -1.2 0 1 704.8463 180.1654
  Z
  M 700.2299 180.5731
  A 12.34 10.89 0.2 0 0 687.9280 169.6401
  A 12.34 10.89 0.2 0 0 675.5501 180.4869
  A 12.34 10.89 0.2 0 0 687.8520 191.4199
  A 12.34 10.89 0.2 0 0 700.2299 180.5731
  Z"
/>
<path fill="#b2a6a5" d="
  M 864.27 190.12
  Q 867.85 188.66 868.92 184.59
  Q 869.00 184.30 869.30 184.36
  L 873.47 185.35
  Q 873.67 185.40 873.59 185.59
  C 869.55 195.12 856.43 196.34 848.74 191.63
  Q 842.67 187.91 842.58 180.20
  C 842.44 168.20 855.38 165.46 864.45 167.22
  Q 869.93 168.29 872.88 174.26
  Q 872.93 174.37 872.83 174.42
  Q 871.05 175.37 869.09 175.51
  Q 868.88 175.53 868.77 175.35
  Q 864.29 168.25 855.44 170.18
  Q 846.65 172.10 847.48 182.18
  Q 848.16 190.47 856.96 191.18
  Q 860.89 191.50 864.27 190.12
  Z"
/>
<path fill="#b2a6a5" d="
  M 736.38 183.73
  L 728.18 183.14
  Q 727.28 183.08 727.25 182.18
  L 727.21 181.17
  Q 727.18 180.28 728.07 180.26
  L 741.62 180.01
  A 0.71 0.70 89.6 0 1 742.33 180.72
  L 742.34 189.13
  A 1.37 1.37 0.0 0 1 741.63 190.33
  Q 731.47 196.02 719.80 192.91
  Q 712.53 190.96 710.15 184.36
  C 708.08 178.64 711.72 171.38 717.29 169.09
  C 724.67 166.06 737.77 165.00 741.37 174.02
  Q 741.77 175.02 740.71 175.22
  L 738.81 175.57
  Q 737.45 175.82 736.94 174.53
  C 735.18 170.16 728.76 169.35 724.80 169.77
  C 717.38 170.56 712.95 175.88 714.57 183.22
  Q 715.84 188.93 722.09 190.59
  Q 729.88 192.66 736.82 188.89
  A 1.08 1.08 0.0 0 0 737.36 188.16
  Q 737.74 186.44 737.34 184.56
  Q 737.17 183.78 736.38 183.73
  Z"
/>
<path fill="#b2a6a5" d="
  M 813.96 174.79
  Q 812.80 174.69 812.83 175.86
  Q 813.08 184.84 812.59 192.13
  Q 812.50 193.38 811.25 193.52
  L 809.73 193.69
  Q 808.37 193.85 808.36 192.48
  L 808.24 167.77
  Q 808.24 167.12 808.88 167.01
  C 810.85 166.68 813.02 167.40 814.39 168.90
  Q 822.20 177.54 829.17 185.86
  Q 829.85 186.68 830.79 187.19
  Q 832.12 187.91 832.01 186.41
  Q 831.35 177.56 831.73 168.23
  Q 831.77 167.40 832.60 167.35
  L 834.94 167.21
  Q 836.22 167.13 836.20 168.42
  Q 836.07 179.48 835.64 190.49
  Q 835.60 191.48 835.25 192.35
  Q 835.06 192.81 834.60 192.99
  Q 832.62 193.76 831.00 192.52
  C 827.74 190.03 825.49 186.58 822.61 183.73
  Q 818.77 179.95 815.45 175.76
  Q 814.75 174.86 813.96 174.79
  Z"
/>
<path fill="#b2a6a5" d="
  M 761.69 179.14
  Q 762.66 178.63 763.34 177.79
  Q 767.14 173.10 771.29 168.54
  A 3.41 3.39 -65.1 0 1 774.22 167.46
  L 774.93 167.56
  Q 776.34 167.74 775.42 168.82
  Q 770.11 175.05 764.75 181.20
  Q 763.61 182.51 763.63 184.28
  Q 763.69 188.56 763.09 192.50
  Q 763.01 193.01 762.50 193.04
  Q 759.16 193.26 759.03 189.94
  C 758.92 186.79 759.34 182.77 757.07 180.34
  Q 751.38 174.25 746.57 168.20
  Q 745.92 167.37 746.97 167.35
  L 749.70 167.27
  Q 750.96 167.24 751.78 168.20
  L 761.07 179.02
  A 0.52 0.51 -33.6 0 0 761.69 179.14
  Z"
/>
<path fill="#b2a6a5" d="
  M 799.36 167.22
  A 0.62 0.62 0.0 0 1 799.98 167.84
  L 800.02 190.35
  A 3.37 0.87 89.9 0 1 799.15 193.72
  L 796.39 193.72
  A 3.37 0.87 89.9 0 1 795.52 190.35
  L 795.48 167.84
  A 0.62 0.62 0.0 0 1 796.10 167.22
  L 799.36 167.22
  Z"
/>
<path fill="#b2a6a5" d="
  M 650.36 190.59
  Q 650.85 190.85 651.43 190.82
  Q 658.94 190.42 665.93 190.82
  Q 667.02 190.88 667.01 191.98
  L 667.01 192.47
  Q 667.00 193.69 665.77 193.76
  Q 655.44 194.27 645.51 193.60
  A 0.54 0.53 -88.3 0 1 645.01 193.06
  L 645.04 168.79
  Q 645.04 167.08 646.71 167.47
  L 647.86 167.73
  Q 649.35 168.08 649.39 169.61
  L 649.79 189.66
  A 1.10 1.09 -76.7 0 0 650.36 190.59
  Z"
/>
<path fill="#006ab4" d="
  M 221.72 210.32
  A 14.18 13.58 73.1 0 1 222.74 208.31
  Q 234.28 189.15 245.69 169.20
  A 0.34 0.34 0.0 0 1 246.28 169.19
  C 262.93 197.13 277.98 224.38 294.18 251.74
  Q 294.49 252.25 294.62 252.91
  Q 294.79 253.74 293.95 253.73
  Q 271.78 253.44 250.57 253.54
  C 245.29 253.56 243.31 250.84 241.02 246.79
  Q 231.58 230.03 222.05 214.03
  Q 220.95 212.20 221.72 210.32
  Z"
/>
<path fill="#006ab4" d="
  M 14.84 230.64
  Q 31.15 202.45 47.68 174.43
  Q 48.60 172.88 49.77 171.42
  A 0.49 0.49 0.0 0 1 50.52 171.41
  Q 52.56 173.85 54.19 176.44
  Q 62.60 189.78 71.15 203.67
  Q 73.41 207.35 75.46 211.23
  A 1.83 1.82 45.5 0 1 75.45 212.96
  C 68.98 224.67 62.28 235.58 55.84 247.84
  C 54.81 249.80 53.47 252.16 51.08 252.68
  C 47.46 253.48 44.20 253.24 40.58 253.30
  Q 21.42 253.67 2.44 253.30
  A 0.47 0.47 0.0 0 1 2.04 252.59
  Q 8.83 241.02 14.84 230.64
  Z"
/>
<rect fill="#b2a6a5" x="387.88" y="176.62" width="39.06" height="7.32" rx="1.02"/>
<path fill="#b2a6a5" d="
  M 930.26 183.27
  L 892.45 182.92
  A 0.31 0.31 0.0 0 1 892.15 182.59
  L 892.50 177.94
  A 0.31 0.31 0.0 0 1 892.80 177.65
  L 930.40 176.98
  A 0.31 0.31 0.0 0 1 930.71 177.29
  L 930.58 182.96
  A 0.31 0.31 0.0 0 1 930.26 183.27
  Z"
/>
</svg>
