<?xml version="1.0" standalone="no"?>
<!DOCTYPE svg PUBLIC "-//W3C//DTD SVG 20010904//EN"
 "http://www.w3.org/TR/2001/REC-SVG-20010904/DTD/svg10.dtd">
<svg version="1.0" xmlns="http://www.w3.org/2000/svg"
 width="466.443373pt" height="393.758314pt" viewBox="0 0 466.443373 393.758314"
 preserveAspectRatio="xMidYMid meet">
<metadata>
Created by potrace 1.12, written by Peter Selinger 2001-2015
</metadata>
<g transform="translate(-25.000000,417.718564) scale(0.100000,-0.100000)"
fill="#000000" stroke="none">
<path d="M2253 4170 c-38 -16 -43 -41 -43 -223 0 -157 2 -177 19 -198 l19 -24
281 -3 281 -3 0 -299 0 -300 -299 0 -298 0 -5 52 c-4 40 -11 57 -32 75 -27 23
-31 23 -271 23 -243 0 -244 0 -272 -24 l-28 -24 -3 -281 -3 -281 -200 0 c-268
0 -249 19 -249 -249 l0 -200 -429 -3 c-406 -3 -430 -4 -450 -22 -20 -18 -21
-28 -21 -276 0 -239 1 -260 19 -281 l19 -24 431 -3 430 -3 3 -204 c3 -180 5
-206 21 -222 15 -16 44 -19 225 -23 l207 -5 0 -278 c1 -273 1 -278 23 -300 22
-22 27 -22 277 -22 248 0 255 1 276 22 16 16 24 38 27 78 l5 57 71 -4 71 -3 5
-209 c5 -204 5 -208 29 -227 22 -18 43 -19 346 -19 303 0 324 1 346 19 24 19
24 23 29 228 l5 208 73 0 72 0 0 -193 c0 -195 4 -222 39 -249 22 -17 639 -18
675 -2 40 18 46 57 46 279 l0 206 73 23 c39 13 117 46 171 74 316 161 534 440
624 797 23 92 26 125 26 270 1 124 -4 186 -18 250 -91 420 -387 757 -788 898
-154 55 -225 64 -550 69 l-298 6 0 298 0 298 279 3 c258 3 281 4 300 22 20 18
21 29 21 206 0 177 -1 188 -21 206 -20 18 -49 19 -793 21 -432 1 -781 -2 -793
-7z m1462 -220 l0 -75 -281 -3 c-271 -2 -282 -3 -300 -23 -18 -20 -19 -44 -22
-375 l-3 -354 -74 0 -75 0 0 349 c0 337 -1 349 -21 375 l-20 26 -280 0 -279 0
0 80 0 80 678 -2 677 -3 0 -75z m-1655 -2045 l0 -1216 -152 3 -153 3 -3 1200
c-1 660 0 1206 3 1213 3 9 44 12 155 12 l150 0 0 -1215z m1775 1054 c184 -23
360 -92 502 -197 74 -55 212 -193 234 -233 9 -18 -25 -19 -1176 -19 l-1185 0
0 230 0 230 768 0 c498 0 799 -4 857 -11z m-2233 -991 c1 -299 3 -571 3 -605
l0 -63 -152 0 -153 0 0 605 0 605 150 0 150 0 2 -542z m758 -63 l0 -455 -75 0
-75 0 0 455 0 455 75 0 75 0 0 -455z m300 0 l0 -455 -75 0 -75 0 0 455 0 455
75 0 75 0 0 -455z m300 0 l0 -455 -75 0 -75 0 0 455 0 455 75 0 75 0 0 -455z
m300 0 l0 -455 -75 0 -75 0 0 455 0 455 75 0 75 0 0 -455z m310 0 l0 -455 -80
0 -80 0 0 455 0 455 80 0 80 0 0 -455z m300 0 l0 -455 -80 0 -80 0 0 455 0
455 80 0 80 0 0 -455z m300 0 l0 -455 -75 0 -75 0 0 455 0 455 75 0 75 0 0
-455z m300 0 l0 -455 -75 0 -75 0 0 455 0 455 75 0 75 0 0 -455z m237 363 c82
-219 84 -476 6 -708 -34 -100 -40 -110 -68 -110 l-25 0 0 456 0 455 28 -3 c24
-3 30 -12 59 -90z m-4207 -303 c-52 -52 -98 -95 -102 -95 -10 0 -11 174 -1
183 3 4 49 7 102 7 l96 0 -95 -95z m540 88 c0 -4 -66 -74 -147 -155 l-148
-148 -117 0 c-65 0 -118 3 -118 7 0 4 66 74 147 155 l148 148 117 0 c65 0 118
-3 118 -7z m110 -203 l0 -100 -95 0 c-52 0 -95 3 -95 7 0 6 181 193 187 193 2
0 3 -45 3 -100z m3398 -596 c-44 -62 -161 -172 -238 -224 -142 -97 -315 -160
-490 -180 -48 -6 -416 -10 -847 -10 l-763 0 0 230 0 230 1186 0 1185 0 -33
-46z m-1588 -710 l0 -154 -225 0 -225 0 0 149 c0 110 3 151 13 155 6 2 108 5
225 5 l212 0 0 -155z m910 1 l0 -155 -230 0 -230 0 0 149 c0 134 2 150 18 154
9 3 113 5 230 6 l212 1 0 -155z"/>
</g>
</svg>
