<?xml version="1.0" standalone="no"?>
<!DOCTYPE svg PUBLIC "-//W3C//DTD SVG 20010904//EN"
 "http://www.w3.org/TR/2001/REC-SVG-20010904/DTD/svg10.dtd">
<svg version="1.0" xmlns="http://www.w3.org/2000/svg"
 width="376.343368pt" height="377.000000pt" viewBox="0 0 376.343368 377.000000"
 preserveAspectRatio="xMidYMid meet">
<metadata>
Created by potrace 1.12, written by Peter Selinger 2001-2015
</metadata>
<g transform="translate(-42.116580,413.000000) scale(0.100000,-0.100000)"
fill="#000000" stroke="none">
<path d="M2090 4119 c-429 -49 -863 -267 -1156 -582 -65 -70 -214 -261 -214
-275 0 -4 78 -52 173 -107 94 -54 213 -123 264 -152 50 -29 95 -53 100 -53 4
0 26 25 48 56 93 130 287 290 450 372 123 61 341 122 439 122 l36 0 0 315 0
315 -32 -1 c-18 -1 -67 -5 -108 -10z"/>
<path d="M2390 3815 l0 -315 29 0 c90 0 307 -59 429 -117 167 -79 360 -237
464 -380 l45 -61 269 155 c148 85 270 156 272 157 1 2 -26 43 -60 92 -82 117
-316 351 -438 437 -190 135 -478 260 -705 307 -82 17 -244 40 -287 40 -17 0
-18 -22 -18 -315z"/>
<path d="M591 3020 c-135 -291 -194 -645 -160 -958 21 -198 89 -461 127 -495
10 -10 31 -17 45 -17 45 0 490 166 510 191 23 28 22 49 -9 144 -84 263 -66
606 45 850 22 47 26 66 18 73 -17 13 -499 290 -518 297 -12 4 -25 -15 -58 -85z"/>
<path d="M3720 2964 c-140 -81 -261 -152 -267 -158 -10 -9 -7 -26 17 -83 112
-266 127 -604 40 -859 -26 -74 -25 -106 3 -131 27 -25 457 -183 498 -183 44 0
65 29 99 137 63 202 75 293 75 558 -1 221 -3 250 -28 365 -30 144 -92 331
-143 431 -19 38 -35 69 -37 69 -1 0 -117 -66 -257 -146z"/>
<path d="M2680 2669 c-574 -164 -546 -155 -589 -194 -21 -19 -51 -63 -67 -97
-24 -52 -29 -76 -28 -138 0 -125 61 -223 172 -277 75 -37 192 -40 262 -6 31
14 156 129 408 372 338 329 362 354 362 386 0 45 -29 75 -72 74 -18 0 -220
-54 -448 -120z m-41 -317 c-281 -274 -271 -266 -328 -266 -61 0 -109 28 -138
80 -36 63 -25 142 26 189 14 13 133 52 319 107 163 47 303 87 311 87 7 1 -78
-88 -190 -197z"/>
<path d="M1245 1599 c-42 -12 -102 -64 -125 -109 -10 -21 -49 -141 -85 -268
l-66 -230 3 -265 c3 -296 3 -293 78 -345 l33 -22 1226 0 c1206 0 1227 0 1259
20 64 39 68 57 76 298 4 127 3 248 -3 292 -11 80 -118 466 -144 516 -22 43
-66 84 -112 105 -38 18 -91 19 -1075 18 -569 0 -1048 -5 -1065 -10z m2104
-164 c15 -15 91 -258 91 -290 0 -3 -508 -5 -1130 -5 -816 0 -1130 3 -1130 11
0 14 57 215 72 252 24 61 -42 58 1065 55 997 -3 1013 -3 1032 -23z m141 -685
l0 -240 -1180 0 -1180 0 0 240 0 240 1180 0 1180 0 0 -240z"/>
<path d="M1343 823 c-55 -11 -72 -97 -27 -132 26 -20 38 -21 366 -21 l339 0
24 25 c43 42 29 105 -26 124 -31 11 -624 14 -676 4z"/>
<path d="M2905 818 c-48 -28 -60 -83 -25 -118 52 -52 123 -26 128 47 2 28 -2
44 -15 55 -25 23 -64 30 -88 16z"/>
<path d="M3230 823 c-33 -12 -50 -37 -50 -74 0 -73 88 -104 132 -46 26 32 22
65 -11 98 -29 29 -42 33 -71 22z"/>
</g>
</svg>
