<?xml version="1.0" standalone="no"?>
<!DOCTYPE svg PUBLIC "-//W3C//DTD SVG 20010904//EN"
 "http://www.w3.org/TR/2001/REC-SVG-20010904/DTD/svg10.dtd">
<svg version="1.0" xmlns="http://www.w3.org/2000/svg"
 width="337.007020pt" height="355.118854pt" viewBox="0 0 337.007020 355.118854"
 preserveAspectRatio="xMidYMid meet">
<metadata>
Created by potrace 1.12, written by Peter Selinger 2001-2015
</metadata>
<g transform="translate(-22.992980,371.118854) scale(0.100000,-0.100000)"
fill="#000000" stroke="none">
<path d="M432 3695 c-49 -56 -22 -144 46 -145 l22 0 0 -316 0 -315 28 20 c15
10 43 34 62 53 20 18 53 46 75 63 22 16 49 39 61 50 11 11 36 32 55 47 19 14
58 48 87 74 l52 47 0 138 0 139 26 0 c65 0 91 94 40 146 -21 21 -535 20 -554
-1z"/>
<path d="M1470 3585 c-19 -19 -39 -35 -43 -35 -4 0 -27 -20 -51 -45 -25 -25
-47 -45 -51 -45 -3 0 -17 -10 -30 -22 -13 -13 -38 -35 -57 -50 -81 -67 -165
-138 -197 -168 -14 -14 -48 -43 -76 -65 -27 -21 -57 -46 -65 -55 -8 -9 -33
-29 -55 -46 -22 -16 -49 -38 -61 -49 -11 -11 -49 -45 -84 -75 -35 -30 -69 -61
-76 -67 -7 -7 -15 -13 -19 -13 -3 0 -16 -10 -29 -22 -12 -13 -39 -36 -61 -53
-21 -16 -48 -39 -59 -50 -12 -11 -40 -36 -62 -55 -173 -150 -164 -140 -164
-186 0 -55 28 -84 80 -84 35 0 53 12 136 85 7 5 28 24 48 40 21 17 50 41 65
55 16 14 45 38 64 53 43 34 112 94 141 122 12 11 39 34 61 50 22 17 60 49 85
72 25 24 48 43 52 43 4 0 29 21 55 48 27 26 64 59 83 74 63 48 92 73 120 99
16 14 45 39 65 55 21 16 57 48 82 72 24 23 47 42 51 42 4 0 24 16 46 35 42 39
49 41 68 23 7 -7 42 -38 78 -68 36 -30 72 -63 81 -72 9 -10 19 -18 23 -18 4 0
18 -10 31 -22 13 -13 40 -36 60 -53 21 -16 59 -49 85 -73 26 -23 61 -52 76
-64 16 -13 41 -35 56 -50 14 -16 30 -28 35 -28 4 0 31 -22 59 -48 28 -26 67
-59 86 -74 19 -16 51 -43 70 -60 20 -18 57 -51 83 -73 26 -22 54 -46 61 -52 7
-7 15 -13 18 -13 4 0 21 -14 39 -31 17 -17 47 -43 66 -58 19 -14 55 -45 79
-68 37 -36 51 -43 84 -43 52 0 88 35 88 85 0 40 -26 71 -125 150 -28 21 -59
48 -70 60 -11 11 -47 42 -80 70 -33 27 -67 57 -76 67 -9 10 -19 18 -23 18 -6
0 -46 32 -82 68 -13 12 -26 22 -29 22 -4 0 -21 15 -39 33 -17 17 -54 50 -81
72 -28 21 -57 46 -65 55 -8 9 -33 29 -55 45 -22 17 -47 37 -55 45 -8 9 -37 34
-64 55 -28 22 -66 56 -86 75 -20 19 -50 45 -66 58 -16 13 -44 35 -63 50 -19
15 -44 36 -55 47 -12 11 -50 45 -86 75 -36 30 -66 58 -68 63 -6 12 -16 7 -52
-28z"/>
<path d="M1464 3195 c-21 -19 -49 -44 -61 -55 -12 -11 -25 -20 -29 -20 -3 0
-18 -13 -32 -28 -15 -15 -45 -41 -67 -57 -21 -17 -56 -46 -75 -65 -20 -19 -54
-48 -75 -65 -21 -16 -48 -39 -59 -50 -12 -11 -39 -33 -61 -50 -38 -28 -57 -45
-128 -110 -19 -16 -50 -43 -71 -60 -21 -16 -62 -51 -90 -77 -28 -26 -55 -48
-59 -48 -4 0 -22 -15 -40 -33 -19 -18 -54 -50 -80 -71 l-47 -38 0 -560 c0
-622 -1 -611 65 -642 28 -14 91 -16 454 -16 l421 0 0 -130 c0 -80 -4 -130 -10
-130 -5 0 -10 -6 -10 -13 0 -8 -9 -24 -20 -37 -19 -22 -32 -24 -138 -30 -64
-4 -189 -7 -277 -9 -125 -1 -169 -5 -202 -19 -24 -9 -43 -20 -43 -24 0 -5 -6
-8 -13 -8 -15 0 -63 -49 -94 -95 -29 -43 -53 -122 -53 -171 0 -46 43 -177 60
-182 5 -2 10 -8 10 -13 0 -13 46 -59 60 -59 5 0 10 -4 10 -9 0 -4 27 -20 61
-35 l60 -26 926 0 925 0 49 25 c71 35 129 100 129 144 0 11 5 23 10 26 6 4 10
232 10 650 0 418 4 646 10 650 6 3 10 13 10 21 0 38 116 114 173 114 61 -1
124 -38 172 -102 29 -38 35 -115 35 -436 l0 -328 -57 -40 c-88 -60 -119 -133
-114 -271 l1 -43 245 0 245 0 0 84 c0 47 -4 88 -10 91 -5 3 -10 15 -10 26 0
10 -4 19 -10 19 -5 0 -10 6 -10 13 0 14 -61 73 -96 93 -18 11 -19 26 -22 380
-1 225 -6 372 -12 378 -6 6 -10 20 -10 33 0 31 -46 111 -89 154 -90 91 -233
132 -340 98 -64 -20 -111 -42 -111 -51 0 -4 -5 -8 -11 -8 -17 0 -92 -84 -113
-127 -10 -21 -22 -46 -27 -55 -5 -10 -9 -304 -9 -657 0 -694 1 -678 -55 -707
-23 -12 -172 -14 -912 -14 -860 0 -885 1 -922 20 -46 23 -75 57 -91 106 -18
53 10 132 57 164 36 25 41 25 297 31 262 7 336 14 336 30 0 5 5 9 10 9 21 0
110 85 110 105 0 8 3 15 8 15 19 0 32 89 32 215 l0 134 437 3 c338 2 437 6
441 16 2 6 9 12 16 12 7 0 19 12 27 28 11 22 15 129 17 589 l3 563 -32 27
c-17 16 -49 44 -70 64 -21 20 -54 48 -71 62 -18 13 -47 38 -63 53 -17 16 -48
42 -70 59 -22 16 -49 39 -61 50 -26 25 -124 109 -202 173 -19 15 -44 37 -57
50 -13 12 -27 22 -31 22 -4 0 -14 8 -23 18 -9 10 -44 41 -79 70 -34 28 -73 62
-86 74 -12 13 -39 36 -59 51 -20 16 -53 44 -74 63 -20 19 -40 34 -43 34 -3 0
-24 -16 -46 -35z m-50 -711 c14 -5 16 -33 16 -203 l0 -198 -25 -11 c-17 -8
-88 -12 -193 -12 -135 0 -172 3 -190 16 -21 15 -22 20 -22 199 0 101 3 190 6
199 5 14 32 16 199 16 106 0 200 -3 209 -6z m594 -6 c8 -8 12 -67 12 -200 0
-183 0 -188 -22 -202 -29 -19 -345 -22 -384 -4 l-24 11 0 197 c0 108 3 200 7
203 12 13 398 8 411 -5z m-603 -560 l25 -11 0 -192 c0 -135 -4 -195 -12 -203
-17 -17 -389 -17 -406 0 -13 13 -17 374 -4 394 13 20 35 22 204 23 107 1 176
-3 193 -11z m593 -4 c21 -15 22 -20 22 -200 0 -147 -3 -188 -14 -200 -12 -11
-53 -14 -199 -14 -102 0 -192 3 -201 6 -14 5 -16 33 -16 209 0 203 0 204 23
208 12 2 99 5 192 6 140 1 175 -2 193 -15z"/>
<path d="M3114 500 c-5 -5 -8 -28 -6 -50 3 -33 8 -40 26 -40 45 -1 56 -22 56
-104 0 -81 1 -82 55 -77 28 2 35 19 35 92 0 37 5 70 12 77 17 17 96 15 114 -2
10 -10 14 -38 14 -90 0 -70 1 -75 23 -78 12 -2 32 -2 45 0 21 4 22 9 22 87 0
90 3 95 61 95 28 0 29 1 29 50 l0 50 -238 0 c-142 0 -242 -4 -248 -10z"/>
</g>
</svg>
