<?xml version="1.0" standalone="no"?>
<!DOCTYPE svg PUBLIC "-//W3C//DTD SVG 20010904//EN"
 "http://www.w3.org/TR/2001/REC-SVG-20010904/DTD/svg10.dtd">
<svg version="1.0" xmlns="http://www.w3.org/2000/svg"
 width="521.639677pt" height="348.089884pt" viewBox="0 0 521.639677 348.089884"
 preserveAspectRatio="xMidYMid meet">
<metadata>
Created by potrace 1.12, written by Peter Selinger 2001-2015
</metadata>
<g transform="translate(-36.524891,369.721097) scale(0.100000,-0.100000)"
fill="#000000" stroke="none">
<path d="M803 3685 c-185 -40 -355 -192 -412 -368 -33 -102 -34 -156 -6 -417
14 -135 45 -447 70 -695 48 -479 57 -529 117 -634 72 -126 212 -224 363 -256
104 -22 3975 -22 4077 0 140 29 282 126 358 244 70 111 66 80 165 1066 56 556
57 584 26 691 -20 70 -70 152 -126 210 -67 67 -125 105 -224 143 l-66 26
-2140 2 c-1776 1 -2151 -1 -2202 -12z m4354 -227 c77 -28 172 -122 196 -192
26 -77 22 -155 -45 -769 l-11 -107 -2321 2 -2320 3 -34 305 c-18 168 -34 359
-35 425 -2 112 0 123 25 170 26 51 94 121 139 146 72 38 32 38 2226 38 l2122
1 58 -22z m108 -1375 c-15 -217 -33 -329 -58 -379 -56 -109 -159 -175 -282
-182 l-71 -4 -13 63 c-29 145 -122 262 -258 327 l-78 37 -675 8 c-371 4 -1051
5 -1510 2 -809 -5 -837 -6 -898 -26 -161 -53 -278 -186 -312 -353 l-12 -59
-71 5 c-125 9 -224 73 -277 181 -27 55 -32 84 -51 255 -11 106 -18 199 -15
207 5 13 303 15 2297 15 l2291 0 -7 -97z m-769 -370 c66 -35 134 -126 134
-178 0 -13 -175 -15 -1655 -15 -1317 0 -1655 3 -1655 13 0 30 51 116 86 145
78 65 -24 61 1584 59 l1465 -2 41 -22z"/>
<path d="M2593 2808 c-23 -11 -53 -64 -53 -93 0 -29 30 -74 60 -90 24 -13 86
-15 386 -15 l356 0 34 34 c24 24 34 43 34 65 0 39 -24 87 -49 101 -27 14 -738
12 -768 -2z"/>
<path d="M2103 855 c-17 -7 -39 -25 -48 -38 -20 -32 -100 -488 -91 -523 12
-46 50 -74 99 -74 55 0 93 27 107 78 14 53 80 439 80 471 0 36 -26 70 -66 87
-40 17 -41 17 -81 -1z"/>
<path d="M3770 857 c-25 -8 -40 -23 -53 -49 -18 -37 -18 -39 18 -250 48 -287
53 -301 96 -323 75 -39 159 4 159 82 0 57 -77 479 -92 503 -12 19 -66 51 -85
49 -4 0 -24 -5 -43 -12z"/>
<path d="M2917 849 c-42 -25 -47 -56 -47 -311 0 -223 2 -246 20 -275 25 -41
79 -58 125 -39 64 27 65 33 65 319 l0 259 -29 29 c-24 23 -38 29 -73 29 -24 0
-51 -5 -61 -11z"/>
<path d="M1241 825 c-16 -14 -33 -36 -37 -48 -3 -12 -37 -107 -75 -212 -85
-238 -84 -236 -64 -278 18 -39 50 -57 100 -57 62 0 85 35 155 230 100 276 102
285 86 324 -29 69 -108 88 -165 41z"/>
<path d="M4569 821 c-42 -43 -38 -82 24 -252 29 -79 66 -179 82 -222 29 -83
62 -117 113 -117 53 0 112 56 112 106 0 18 -144 424 -166 466 -18 35 -43 48
-94 48 -33 0 -48 -6 -71 -29z"/>
</g>
</svg>
